<?xml version="1.0" encoding="UTF-8"?>
<svg version="1.1" xmlns="http://www.w3.org/2000/svg" width="512" height="512">
<path d="M0 0 C5.03004235 2.91701227 8.99013953 7.35492701 12.96875 11.53515625 C15.03880237 13.61122622 17.10646608 15.50577191 19.328125 17.40673828 C23.60363256 21.13117638 27.61021557 25.07312927 31.59375 29.10546875 C32.31812256 29.83362793 33.04249512 30.56178711 33.78881836 31.31201172 C36.85167424 34.39103826 39.90847311 37.47605198 42.96582031 40.56054688 C45.21469117 42.82762333 47.46665238 45.09159841 49.71875 47.35546875 C50.39607178 48.04108887 51.07339355 48.72670898 51.77124023 49.43310547 C55.5092943 53.19003163 59.29762053 56.76482167 63.4264679 60.09126282 C65.65625 62.23046875 65.65625 62.23046875 67.82975769 65.50675964 C71.6038948 70.86899956 75.4016281 74.50756056 81.96017838 75.96432877 C91.5630911 77.0853318 101.2172304 76.90331919 110.86952233 76.75051904 C115.12294803 76.69700349 119.37603294 76.71775016 123.62968445 76.73027039 C131.66589655 76.74281901 139.70024107 76.68958635 147.73603457 76.61209887 C156.89215762 76.52705723 166.04791113 76.51628726 175.204373 76.51143324 C194.02242672 76.4998102 212.83895152 76.39596512 231.65625 76.23046875 C231.92887791 75.63307892 232.20150581 75.03568909 232.48239517 74.42019653 C233.62702292 72.28498941 234.73635536 70.89900493 236.43792725 69.19482422 C237.28728851 68.33700348 237.28728851 68.33700348 238.15380859 67.46185303 C238.77304199 66.84666809 239.39227539 66.23148315 240.03027344 65.59765625 C241.01111908 64.61155365 241.01111908 64.61155365 242.01177979 63.60552979 C244.17472357 61.43378428 246.34490138 59.26943608 248.515625 57.10546875 C250.0232624 55.59648393 251.53060282 54.08720233 253.03765869 52.57763672 C256.19861921 49.41372677 259.36317064 46.25346423 262.53027344 43.09570312 C266.58334644 39.05400489 270.62740136 35.0034215 274.66878891 30.95004272 C277.78103072 27.83056081 280.89803677 24.71587443 284.01648712 21.6026001 C285.50904293 20.11137584 287.00012168 18.61867166 288.48967743 17.12445068 C290.57652308 15.03250677 292.66970703 12.94711365 294.76464844 10.86328125 C295.37578491 10.24809631 295.98692139 9.63291138 296.61657715 8.99908447 C302.70370081 2.97140331 307.85911079 -0.85855915 316.71875 -1.20703125 C323.75985338 -1.159881 328.23916414 0.82582476 333.65625 5.23046875 C337.49064827 9.16072697 339.51356941 12.91399759 339.85371685 18.43641472 C339.82937478 19.65557138 339.80503271 20.87472805 339.779953 22.13082886 C339.76429959 23.15420088 339.76429959 23.15420088 339.74832994 24.19824708 C339.71155678 26.47862074 339.66055639 28.75846547 339.61010742 31.03857422 C339.58174057 32.67682909 339.55460091 34.31510561 339.52859497 35.95339966 C339.48683959 38.57187718 339.44422477 41.19031566 339.39794099 43.80871749 C339.28338748 50.3207556 339.20762823 56.83242475 339.15510559 63.34524536 C339.14742997 64.29299894 339.13975435 65.24075252 339.13184613 66.21722591 C339.10094599 70.12826284 339.07137154 74.03930859 339.04250181 77.95036101 C338.95931034 89.01479613 338.8391229 100.07584431 338.60375977 111.13818359 C338.4168026 119.9372748 338.31352557 128.73305244 338.30452234 137.53418267 C338.29673567 142.18247807 338.24952995 146.82211106 338.1003933 151.46819687 C336.94620543 174.45762262 336.94620543 174.45762262 347.26224333 194.05677569 C351.55621239 198.41529112 356.33389875 202.11352026 361.13111305 205.89966202 C368.16416655 212.39146376 370.21449066 221.84100484 370.96875 231.04296875 C370.58117731 242.51056071 366.30686513 253.16845275 357.90625 261.04296875 C352.55494541 265.38575825 346.6546935 269.23046875 339.65625 269.23046875 C339.98625 283.09046875 340.31625 296.95046875 340.65625 311.23046875 C349.40363278 315.70908277 349.40363278 315.70908277 358.1574707 320.17504883 C359.79075317 321.01652466 359.79075317 321.01652466 361.45703125 321.875 C362.57247314 322.44581299 363.68791504 323.01662598 364.8371582 323.60473633 C367.25902856 325.00139647 368.97454653 326.02325538 370.65625 328.23046875 C371.29598977 332.5487122 371.10288291 334.53890811 368.71875 338.23046875 C365.37878817 340.41166831 363.47712404 340.81519776 359.546875 340.16015625 C352.90714964 338.02467701 346.77881599 334.5283908 340.65625 331.23046875 C340.36492187 332.25785156 340.07359375 333.28523438 339.7734375 334.34375 C334.47805858 352.46956442 325.15619878 369.71513634 308.08203125 379.34765625 C296.19039935 385.59880849 285.21458478 387.3852584 271.98028564 387.36418152 C270.92836053 387.36644708 269.87643541 387.36871263 268.79263377 387.37104684 C265.28003884 387.37735935 261.76748277 387.37655924 258.25488281 387.37573242 C255.73133291 387.37872563 253.20778346 387.38212854 250.68423462 387.38591003 C244.54779054 387.39382149 238.41136061 387.39696398 232.27491191 387.39752241 C227.28378541 387.39799853 222.29266206 387.40005803 217.30153656 387.40322304 C203.13250577 387.41202435 188.96348254 387.41664325 174.794449 387.41589256 C174.03148005 387.41585261 173.2685111 387.41581265 172.48242188 387.41577148 C171.718515 387.4157306 170.95460813 387.41568972 170.16755256 387.4156476 C157.79275669 387.41524132 145.41799128 387.42480782 133.04320422 387.43890985 C120.31895121 387.45329503 107.59471303 387.46017885 94.87045169 387.45931607 C87.73396693 387.45898484 80.59751409 387.46169973 73.46103668 387.47249413 C66.74692324 387.48258505 60.03288822 387.48224193 53.31876755 387.47497749 C50.85981269 387.47393388 48.4008536 387.47628123 45.94190598 387.48233795 C42.57457524 387.49009247 39.20747495 387.48539014 35.84014893 387.47770691 C34.39496852 387.48542225 34.39496852 387.48542225 32.92059255 387.49329346 C13.99122679 387.39843169 -0.79214748 381.68551981 -14.73046875 369.0703125 C-25.01384532 358.2616554 -29.77272606 345.41155419 -33.34375 331.23046875 C-33.88789551 331.50310547 -34.43204102 331.77574219 -34.99267578 332.05664062 C-37.47876897 333.29360811 -39.97348893 334.51210814 -42.46875 335.73046875 C-43.75265625 336.37435547 -43.75265625 336.37435547 -45.0625 337.03125 C-53.33434801 341.0399148 -53.33434801 341.0399148 -58.34375 340.23046875 C-61.67253632 337.77006147 -63.13676948 336.33436488 -63.90625 332.23046875 C-63.20306384 328.48014259 -61.93450506 327.01571927 -59.34375 324.23046875 C-56.50292969 322.46948242 -56.50292969 322.46948242 -53.265625 320.8984375 C-52.21987305 320.3830542 -51.17412109 319.8676709 -50.09667969 319.33666992 C-48.11522949 318.38691284 -48.11522949 318.38691284 -46.09375 317.41796875 C-41.88625 315.37609375 -37.67875 313.33421875 -33.34375 311.23046875 C-33.01375 297.37046875 -32.68375 283.51046875 -32.34375 269.23046875 C-34.65375 268.90046875 -36.96375 268.57046875 -39.34375 268.23046875 C-49.37046281 263.47879853 -57.50854683 255.753187 -61.34375 245.23046875 C-64.31133076 234.61500843 -64.60829026 223.2258507 -59.28758907 213.2503233 C-56.44452075 208.65535292 -53.55471634 205.39945788 -49.23890686 202.12739563 C-40.22398436 195.10781168 -33.00408175 188.53393171 -31.47872925 176.84432983 C-30.55890216 167.6074908 -30.86046651 158.29926885 -31.14427447 149.03670287 C-31.26386922 144.35375828 -31.2584512 139.67087545 -31.26637268 134.98664856 C-31.2990611 126.14061662 -31.43476989 117.29955775 -31.61213499 108.45536262 C-31.86819727 95.46427402 -31.97230043 82.47174056 -32.07004642 69.47863483 C-32.08468607 67.55576881 -32.09934673 65.63290294 -32.11402893 63.71003723 C-32.12096915 62.77107662 -32.12790937 61.83211601 -32.13505989 60.86470205 C-32.17970872 55.30729273 -32.2562392 49.75148345 -32.36164844 44.19490087 C-32.42494892 40.74320344 -32.4729217 37.29138738 -32.51842117 33.8394146 C-32.54335989 32.24458071 -32.57543501 30.6498393 -32.61532402 29.0553093 C-32.98600671 14.07871398 -32.98600671 14.07871398 -28.34375 7.23046875 C-26.34375 5.20703125 -26.34375 5.20703125 -24.34375 3.85546875 C-23.68375 3.39398438 -23.02375 2.9325 -22.34375 2.45703125 C-21.68375 2.05226563 -21.02375 1.6475 -20.34375 1.23046875 C-19.74046875 0.85535156 -19.1371875 0.48023437 -18.515625 0.09375 C-13.0194918 -2.0908641 -5.57161363 -1.82934647 0 0 Z " fill="#FEAF2E" transform="translate(102.34375,82.76953125)"/>
<path d="M0 0 C4.3659013 2.50635075 7.48268921 5.43349605 11 9 C13.43463982 11.46118023 15.87320228 13.91843728 18.3125 16.375 C18.93833984 17.00921875 19.56417969 17.6434375 20.20898438 18.296875 C23.98096076 22.08819486 27.86766287 25.66418011 31.91333008 29.16015625 C35.79568395 32.58327767 39.49446138 36.18756436 43.1875 39.8125 C43.96802734 40.55564453 44.74855469 41.29878906 45.55273438 42.06445312 C54.21208887 50.59160374 58.32581654 59.77496177 59.3125 71.8125 C58.92492731 83.28009196 54.65061513 93.937984 46.25 101.8125 C36.16141199 109.84917181 26.39240461 111.92123923 13.53515625 110.66015625 C0.64233031 108.31461241 -8.14634865 99.31624018 -17.0859375 90.3125 C-17.9907486 89.41055908 -18.89555969 88.50861816 -19.82778931 87.5793457 C-21.72216072 85.68700057 -23.61328116 83.79200085 -25.49951172 81.89160156 C-27.89969847 79.47425164 -30.31321147 77.07072702 -32.73091698 74.6709137 C-35.06492568 72.3504271 -37.3873954 70.01845973 -39.7109375 67.6875 C-40.5693222 66.83518799 -41.42770691 65.98287598 -42.31210327 65.10473633 C-51.75089656 55.55506234 -57.22472151 46.66983571 -57.4375 33 C-57.38888284 26.50699098 -56.44886093 21.52674609 -53 16 C-52.56429688 15.23171875 -52.12859375 14.4634375 -51.6796875 13.671875 C-48.30096302 8.09605646 -44.56639029 4.36708224 -39 1 C-38.22140625 0.51273438 -37.4428125 0.02546875 -36.640625 -0.4765625 C-25.34725964 -6.60235765 -11.29306711 -5.75531091 0 0 Z " fill="#3F5FFE" transform="translate(414,242)"/>
<path d="M0 0 C1.18420532 0.00858032 1.18420532 0.00858032 2.39233398 0.01733398 C13.18754932 0.34392856 22.74860791 4.74773512 30.3125 12.5 C38.37178622 23.10676175 40.33434821 32.48420837 39.3125 45.5 C36.58978796 57.17981586 28.17061759 66.10384371 19.92578125 74.3203125 C19.02812546 75.22321014 18.13046967 76.12610779 17.20561218 77.05636597 C15.31398848 78.95438213 13.41956696 80.8489914 11.51977539 82.73876953 C9.112134 85.13494064 6.7206936 87.54657542 4.3334322 89.96302986 C2.01952224 92.29993306 -0.30941404 94.62176069 -2.63671875 96.9453125 C-3.47982101 97.79964874 -4.32292328 98.65398499 -5.1915741 99.53421021 C-16.78936872 110.99943299 -25.75415298 114.82907984 -41.73510742 114.88500977 C-48.78742578 114.77204077 -53.98598149 113.89608276 -59.6875 109.5 C-60.75291016 108.73816406 -60.75291016 108.73816406 -61.83984375 107.9609375 C-71.39482371 100.4521823 -75.40234406 90.17436835 -76.96875 78.3828125 C-77.47192825 68.27731601 -73.81104696 59.31515571 -67.6875 51.5 C-64.65529052 48.15808814 -61.49887026 44.96090391 -58.27490234 41.80615234 C-56.81473606 40.37718828 -55.36554929 38.93779579 -53.91796875 37.49609375 C-49.20464729 32.82251853 -44.40795147 28.29140816 -39.37207031 23.96630859 C-37.14831431 22.03067402 -35.06688533 19.97626975 -33 17.875 C-32.24460938 17.11445313 -31.48921875 16.35390625 -30.7109375 15.5703125 C-29.16080063 13.98426512 -27.63690548 12.37253271 -26.125 10.75 C-18.63899408 3.83984069 -10.17768976 -0.08605774 0 0 Z " fill="#3F5FFE" transform="translate(115.6875,237.5)"/>
<path d="M0 0 C1.01707031 0.68835938 1.01707031 0.68835938 2.0546875 1.390625 C14.03013541 9.28579564 23.42989338 12.18698066 37.625 12.25 C38.76324219 12.270625 39.90148437 12.29125 41.07421875 12.3125 C50.65159074 12.35648334 58.50286911 10.76987872 66.875 6 C67.75929688 5.505 68.64359375 5.01 69.5546875 4.5 C72.02937545 3.08465575 72.02937545 3.08465575 74.0078125 1.1875 C74.66523438 0.795625 75.32265625 0.40375 76 0 C79.55798643 0.90202473 82.14720334 2.70678321 85.0625 4.875 C97.87107132 13.35859919 113.57896385 13.92007316 128.52539062 11.60961914 C137.91361657 9.64127881 146.48384986 5.9787558 154 0 C151.55776425 20.2537137 140.87328927 40.12989637 125 53 C107.20007961 66.37797797 85.55856727 70.00102329 63.86279297 67.17553711 C44.83770517 64.3992559 29.54158206 55.74118261 17 41 C9.14617643 30.11722741 0 13.80918404 0 0 Z " fill="#BB1E7F" transform="translate(179,301)"/>
<path d="M0 0 C4.42094636 1.60906516 7.35885457 3.03828185 10 7 C10.19997619 9.8427402 10.28331664 12.58775298 10.2746582 15.43115234 C10.27976913 16.29162674 10.28488007 17.15210114 10.29014587 18.03865051 C10.30406443 20.88781662 10.30308323 23.7367414 10.30078125 26.5859375 C10.30466729 28.56507457 10.30900177 30.5442108 10.31376648 32.52334595 C10.32123382 36.67444561 10.32093395 40.82546024 10.31567383 44.9765625 C10.30988234 50.2952779 10.3268 55.61364471 10.3500185 60.93230247 C10.36475435 65.02096593 10.36562767 69.10954544 10.36250877 73.19823074 C10.36302219 75.1590303 10.36826366 77.11983453 10.37832069 79.08060837 C10.3906631 81.82398829 10.38390631 84.56668946 10.37231445 87.31005859 C10.37995819 88.11958481 10.38760193 88.92911102 10.39547729 89.76316833 C10.35258792 94.35762705 9.89760525 97.37524957 7 101 C2.11348457 104.47694367 -0.85032287 105.7410816 -7 105 C-9.60412504 103.51534011 -11.69329146 101.60482671 -13.875 99.5625 C-14.48359863 99.01698486 -15.09219727 98.47146973 -15.71923828 97.90942383 C-19.94642611 94.08591844 -24.00971217 90.10460138 -27.984375 86.01953125 C-30.5718346 83.42705719 -33.32280285 81.06305052 -36.1015625 78.6796875 C-38.58762638 76.48008365 -40.88869934 74.12386163 -43.2109375 71.75390625 C-45.11315582 69.88906777 -47.09762375 68.16494605 -49.125 66.4375 C-50.42162336 65.29727868 -51.71364789 64.15179645 -53 63 C-53.53367187 62.53078125 -54.06734375 62.0615625 -54.6171875 61.578125 C-57.62044591 58.55789903 -58.37403607 56.04722968 -58.5625 51.9375 C-58.24579565 46.49668175 -56.50936622 44.24488289 -52.48046875 40.640625 C-51.19237194 39.5068753 -49.89425359 38.38447374 -48.58984375 37.26953125 C-45.2410959 34.33495734 -41.99759405 31.29564145 -38.75 28.25 C-32.20708392 22.12129534 -25.62815131 16.03651716 -19 10 C-18.04480469 9.12730469 -17.08960938 8.25460938 -16.10546875 7.35546875 C-14.75388672 6.12763672 -14.75388672 6.12763672 -13.375 4.875 C-12.57835937 4.15054688 -11.78171875 3.42609375 -10.9609375 2.6796875 C-7.32646564 -0.43350553 -4.74729636 -0.38284648 0 0 Z " fill="#FF822D" transform="translate(420,113)"/>
<path d="M0 0 C4.98390737 2.89094627 8.97615521 6.59521445 13.125 10.5625 C14.45790694 11.82206596 15.79124533 13.08117549 17.125 14.33984375 C17.78113281 14.96101074 18.43726563 15.58217773 19.11328125 16.22216797 C21.76019621 18.71632361 24.43988593 21.17197691 27.125 23.625 C28.07890625 24.49898437 29.0328125 25.37296875 30.015625 26.2734375 C32.14552597 28.22228263 34.28272258 30.1628806 36.421875 32.1015625 C39.64803947 35.03344999 42.83458823 38.00254886 46 41 C47.06541016 42.00546875 47.06541016 42.00546875 48.15234375 43.03125 C50.88899525 45.8644892 52.36768786 48.15870721 52.625 52.0625 C51.41079522 59.71199012 46.18588793 63.99780644 40.6875 69 C39.2473775 70.32940722 37.80727377 71.65883478 36.3671875 72.98828125 C35.63854492 73.65682129 34.90990234 74.32536133 34.15917969 75.01416016 C31.48368492 77.47486509 28.82900518 79.95719556 26.17626953 82.44238281 C24.32900776 84.17204317 22.47758613 85.8971389 20.625 87.62109375 C18.17985929 89.89694535 15.7436224 92.18184065 13.3125 94.47265625 C12.14595097 95.56522978 10.97928931 96.65768307 9.8125 97.75 C9.28374268 98.25168701 8.75498535 98.75337402 8.21020508 99.27026367 C2.23527116 104.84149895 2.23527116 104.84149895 -2.1484375 105.15234375 C-8.00917672 104.58683383 -10.87474747 103.22838384 -15 99 C-16.62609481 95.74781038 -16.17444476 92.16567631 -16.19287109 88.59057617 C-16.20104858 87.72049423 -16.20922607 86.85041229 -16.21765137 85.95396423 C-16.24251787 83.06697279 -16.25902417 80.18003054 -16.2734375 77.29296875 C-16.27876118 76.30811304 -16.28408485 75.32325733 -16.28956985 74.30855751 C-16.3163063 69.09625654 -16.33568003 63.88397957 -16.35009766 58.67163086 C-16.36675105 53.28436019 -16.41153332 47.89770061 -16.4624691 42.51066113 C-16.49610277 38.37139675 -16.50767081 34.23227815 -16.51332474 30.09288979 C-16.52004744 28.10692993 -16.53529586 26.12098 -16.55921555 24.13515282 C-16.59078824 21.35546236 -16.5909159 18.57742966 -16.58349609 15.79760742 C-16.59990143 14.97715942 -16.61630676 14.15671143 -16.63320923 13.31140137 C-16.58630105 9.0186495 -16.39470359 7.48419712 -13.58071899 4.03218079 C-8.92079386 0.36273427 -6.07146615 -0.6280827 0 0 Z " fill="#FF822D" transform="translate(99,113)"/>
<path d="M0 0 C2.5 2.1875 2.5 2.1875 4 5 C4.0625 8.0625 4.0625 8.0625 3 11 C-1.1095639 14.8845604 -5.9264089 17.14094622 -10.95703125 19.58984375 C-11.81882492 20.01624649 -12.68061859 20.44264923 -13.56852722 20.88197327 C-16.31370519 22.23960915 -19.06270627 23.58924048 -21.8125 24.9375 C-24.55124304 26.28284322 -27.2890087 27.63004306 -30.02433777 28.98231506 C-31.72190726 29.82133753 -33.42143099 30.65642223 -35.12324524 31.48680115 C-39.66559287 33.72948957 -43.9925033 36.14195744 -48.24549866 38.89642334 C-50.93807104 40.59004418 -53.74958464 41.95874606 -56.625 43.3125 C-57.68976562 43.82425781 -58.75453125 44.33601563 -59.8515625 44.86328125 C-63.18785705 46.06782432 -65.48467923 46.38016812 -69 46 C-72.32878632 43.53959272 -73.79301948 42.10389613 -74.5625 38 C-73.86357343 34.27239165 -72.55398721 32.77929905 -70 30 C-67.52416992 28.41357422 -67.52416992 28.41357422 -64.73046875 27.0546875 C-63.68793945 26.5405127 -62.64541016 26.02633789 -61.57128906 25.49658203 C-59.89631348 24.69389893 -59.89631348 24.69389893 -58.1875 23.875 C-57.0334668 23.31022949 -55.87943359 22.74545898 -54.69042969 22.16357422 C-51.13357736 20.42796652 -47.56864601 18.71120517 -44 17 C-42.39342529 16.2275293 -42.39342529 16.2275293 -40.75439453 15.43945312 C-36.80054794 13.54020916 -32.84624656 11.64249327 -28.87963867 9.77001953 C-24.77633768 7.83101363 -20.70204918 5.87385212 -16.703125 3.7265625 C-16.06665039 3.38866699 -15.43017578 3.05077148 -14.77441406 2.70263672 C-13.15384863 1.83259732 -11.54499238 0.9408376 -9.9375 0.046875 C-6.20669348 -1.28272094 -3.81423098 -0.93993549 0 0 Z " fill="#FF6723" transform="translate(113,377)"/>
<path d="M0 0 C3.11031787 1.34891017 6.04268099 2.97141283 9 4.625 C10.69250723 5.54443914 12.38653645 6.46108181 14.08203125 7.375 C14.91557129 7.82488281 15.74911133 8.27476562 16.60791016 8.73828125 C19.91685643 10.48360012 23.28406991 12.07398866 26.6875 13.625 C59.8166004 28.8166004 59.8166004 28.8166004 65 34 C65.56595542 38.28509104 65.42858845 40.33637917 63.0625 44 C59.26574023 46.47951659 57.7034968 46.13590963 53.38354492 45.53466797 C49.58138185 44.68178083 46.47909938 42.99876532 43.125 41.0625 C41.62923383 40.23638577 40.13312761 39.41088699 38.63671875 38.5859375 C37.48888916 37.94350098 37.48888916 37.94350098 36.31787109 37.28808594 C32.55478019 35.19686331 28.74737089 33.19184618 24.9375 31.1875 C24.17058838 30.78063965 23.40367676 30.3737793 22.61352539 29.95458984 C17.98118259 27.51155975 13.31273354 25.16260224 8.6015625 22.875 C7.51625244 22.34495361 6.43094238 21.81490723 5.31274414 21.26879883 C3.18687956 20.2345297 1.05600322 19.21048323 -1.08032227 18.19799805 C-10.3779331 13.66665478 -10.3779331 13.66665478 -13 9 C-13.08027379 5.06658433 -12.4616714 3.52956425 -9.875 0.5625 C-5.99317542 -1.54718727 -4.29382672 -0.98058216 0 0 Z " fill="#FF6722" transform="translate(408,377)"/>
<path d="M0 0 C0.87411026 -0.00524185 1.74822052 -0.0104837 2.64881897 -0.0158844 C4.49723244 -0.02230683 6.34568677 -0.02096473 8.1940918 -0.01245117 C11.02141209 -0.00394759 13.84670786 -0.03268773 16.67382812 -0.06445312 C18.47005148 -0.0660654 20.26627841 -0.0654871 22.0625 -0.0625 C23.3298423 -0.07935097 23.3298423 -0.07935097 24.62278748 -0.09654236 C30.47270114 -0.02715106 30.47270114 -0.02715106 33.61938477 2.29272461 C35.09765625 4.43359375 35.09765625 4.43359375 35.78515625 7.18359375 C34.72234298 12.20780192 31.6493942 14.8574871 28.09765625 18.43359375 C27.16118408 19.39556642 26.22500198 20.35782154 25.2890625 21.3203125 C15.5462895 31.24736891 15.5462895 31.24736891 11.2109375 31.8046875 C7.32148672 31.34107668 6.07317866 30.20089161 3.28515625 27.49609375 C2.43308594 26.68011719 1.58101562 25.86414063 0.703125 25.0234375 C-0.15667969 24.16878906 -1.01648438 23.31414062 -1.90234375 22.43359375 C-3.17658203 21.19802734 -3.17658203 21.19802734 -4.4765625 19.9375 C-10.51280887 14.01789608 -10.51280887 14.01789608 -12.90234375 10.43359375 C-12.5740794 4.30599251 -12.5740794 4.30599251 -10.59837341 1.74009705 C-7.56632337 -0.59558344 -3.68066815 -0.01275814 0 0 Z " fill="#F70C8B" transform="translate(244.90234375,252.56640625)"/>
<path d="M0 0 C4.93394788 2.84392457 8.66315765 5.11855459 10.76953125 10.55078125 C10.58203125 13.48828125 10.58203125 13.48828125 9.14453125 16.36328125 C6.23511897 18.77596461 4.3626357 19.15214479 0.6015625 18.921875 C-2.6118376 18.23195738 -4.82824746 16.44495956 -7.41796875 14.48828125 C-13.78795178 11.32579851 -21.4850255 11.29042625 -28.41796875 12.48828125 C-32.3715965 13.8752854 -35.84901771 15.89618738 -39.4296875 18.0546875 C-42.41796875 19.48828125 -42.41796875 19.48828125 -45.16796875 19.30859375 C-48.15712168 18.21879841 -49.54038315 17.06126892 -51.41796875 14.48828125 C-52.04794504 10.78717054 -51.85131378 9.14085994 -49.765625 6 C-47.14258263 3.19365018 -44.81867296 1.86903416 -41.35546875 0.23828125 C-40.31261719 -0.261875 -39.26976562 -0.76203125 -38.1953125 -1.27734375 C-26.99073421 -6.25715632 -10.99529866 -5.11576805 0 0 Z " fill="#432C31" transform="translate(346.41796875,225.51171875)"/>
<path d="M0 0 C0.65226562 0.36867187 1.30453125 0.73734375 1.9765625 1.1171875 C4.76264754 2.82052859 6.16252176 4.24378263 8 7 C8.46356672 10.63127267 8.49645069 12.31967869 6.3125 15.3125 C3.64422291 17.25962112 2.29088058 17.78497087 -1 18 C-3.98828125 16.56640625 -3.98828125 16.56640625 -7.3125 14.5625 C-15.15723742 10.25946173 -22.21602937 9.65429201 -31 11 C-34.6685672 12.25491562 -37.78872019 13.84170604 -41 16 C-44 18 -44 18 -47 17.8125 C-51.49282297 16.59569378 -51.49282297 16.59569378 -53 14 C-54.05783935 7.54717999 -54.05783935 7.54717999 -51.8515625 4.3203125 C-50.01593376 2.5921352 -48.15213974 1.31499072 -46 0 C-45.22011719 -0.48855469 -44.44023437 -0.97710937 -43.63671875 -1.48046875 C-30.68666211 -8.171019 -12.45793277 -7.44074483 0 0 Z " fill="#432C31" transform="translate(209,227)"/>
<path d="M0 0 C1.61013585 0.73709784 3.21292391 1.49025857 4.8125 2.25 C5.70582031 2.66765625 6.59914063 3.0853125 7.51953125 3.515625 C10.15254485 5.09128668 11.4649078 6.35964142 13 9 C12.92561289 12.5705812 12.38333567 14.46049054 10.3125 17.375 C7.17226641 19.58165063 5.83344705 19.42258471 2 19 C-1.40504064 17.72333891 -4.62655395 16.12911526 -7.875 14.5 C-8.75414063 14.07074219 -9.63328125 13.64148438 -10.5390625 13.19921875 C-12.69808171 12.14317674 -14.85119372 11.07663021 -17 10 C-17 9.67 -17 9.34 -17 9 C-16.21625 8.79375 -15.4325 8.5875 -14.625 8.375 C-9.66378262 6.49315893 -3.80811172 3.80811172 0 0 Z " fill="#FD6925" transform="translate(104,342)"/>
<path d="M0 0 C1.92513649 1.26937865 3.8300889 2.56983982 5.71484375 3.8984375 C8.96974264 6.06209861 11.62331089 6.93638093 15.41796875 7.6953125 C11.77762222 10.12221019 7.98408576 11.93629879 4.04296875 13.8203125 C2.90988281 14.37912109 2.90988281 14.37912109 1.75390625 14.94921875 C-5.39841758 18.36282785 -5.39841758 18.36282785 -9.58203125 17.6953125 C-12.13442795 16.03970383 -13.33783979 14.79869615 -14.00390625 11.7890625 C-14.1506919 9.60358731 -14.08766512 7.82776838 -13.58203125 5.6953125 C-11.45703125 3.3828125 -11.45703125 3.3828125 -8.58203125 1.6953125 C-7.28265625 0.6125 -7.28265625 0.6125 -5.95703125 -0.4921875 C-2.58203125 -1.3046875 -2.58203125 -1.3046875 0 0 Z " fill="#FD6825" transform="translate(409.58203125,343.3046875)"/>
</svg>
