<?xml version="1.0" encoding="UTF-8"?>
<svg version="1.1" xmlns="http://www.w3.org/2000/svg" width="512" height="512">
<path d="M0 0 C5.03004235 2.91701227 8.99013953 7.35492701 12.96875 11.53515625 C15.03880237 13.61122622 17.10646608 15.50577191 19.328125 17.40673828 C23.60363256 21.13117638 27.61021557 25.07312927 31.59375 29.10546875 C32.31812256 29.83362793 33.04249512 30.56178711 33.78881836 31.31201172 C36.85167424 34.39103826 39.90847311 37.47605198 42.96582031 40.56054688 C45.21469117 42.82762333 47.46665238 45.09159841 49.71875 47.35546875 C50.39607178 48.04108887 51.07339355 48.72670898 51.77124023 49.43310547 C55.5092943 53.19003163 59.29762053 56.76482167 63.4264679 60.09126282 C65.65625 62.23046875 65.65625 62.23046875 67.82975769 65.50675964 C71.6038948 70.86899956 75.4016281 74.50756056 81.96017838 75.96432877 C91.5630911 77.0853318 101.2172304 76.90331919 110.86952233 76.75051904 C115.12294803 76.69700349 119.37603294 76.71775016 123.62968445 76.73027039 C131.66589655 76.74281901 139.70024107 76.68958635 147.73603457 76.61209887 C156.89215762 76.52705723 166.04791113 76.51628726 175.204373 76.51143324 C194.02242672 76.4998102 212.83895152 76.39596512 231.65625 76.23046875 C231.92887791 75.63307892 232.20150581 75.03568909 232.48239517 74.42019653 C233.62702292 72.28498941 234.73635536 70.89900493 236.43792725 69.19482422 C237.28728851 68.33700348 237.28728851 68.33700348 238.15380859 67.46185303 C238.77304199 66.84666809 239.39227539 66.23148315 240.03027344 65.59765625 C241.01111908 64.61155365 241.01111908 64.61155365 242.01177979 63.60552979 C244.17472357 61.43378428 246.34490138 59.26943608 248.515625 57.10546875 C250.0232624 55.59648393 251.53060282 54.08720233 253.03765869 52.57763672 C256.19861921 49.41372677 259.36317064 46.25346423 262.53027344 43.09570312 C266.58334644 39.05400489 270.62740136 35.0034215 274.66878891 30.95004272 C277.78103072 27.83056081 280.89803677 24.71587443 284.01648712 21.6026001 C285.50904293 20.11137584 287.00012168 18.61867166 288.48967743 17.12445068 C290.57652308 15.03250677 292.66970703 12.94711365 294.76464844 10.86328125 C295.37578491 10.24809631 295.98692139 9.63291138 296.61657715 8.99908447 C302.70370081 2.97140331 307.85911079 -0.85855915 316.71875 -1.20703125 C323.75985338 -1.159881 328.23916414 0.82582476 333.65625 5.23046875 C339.37297894 11.09011592 339.9494309 16.59273061 339.89675903 24.41157532 C339.89932231 25.80230775 339.89932231 25.80230775 339.90193737 27.2211358 C339.90523249 30.32889889 339.89422809 33.43644624 339.88330078 36.54418945 C339.88273667 38.77149958 339.88305322 40.99881008 339.88418579 43.22612 C339.88476032 49.27525027 339.87298977 55.32430145 339.85903788 61.37341332 C339.84654721 67.69418453 339.84536133 74.01495749 339.84298706 80.33573914 C339.83747434 90.94560274 339.82497639 101.55543506 339.80712891 112.1652832 C339.78876637 123.09269058 339.77461169 134.02009007 339.76611328 144.94750977 C339.76558783 145.62125715 339.76506239 146.29500453 339.76452102 146.9891685 C339.76191091 150.36921538 339.7593835 153.74926232 339.75689721 157.1293093 C339.73616921 185.16304932 339.70079876 213.19675723 339.65625 241.23046875 C340.23068848 240.92753906 340.80512695 240.62460937 341.39697266 240.3125 C344.01861489 238.93908275 346.6496494 237.58469993 349.28125 236.23046875 C350.63669922 235.51503906 350.63669922 235.51503906 352.01953125 234.78515625 C360.67620981 230.36203582 360.67620981 230.36203582 365.65625 231.23046875 C369.28277055 233.83210306 370.47928105 235.32953594 371.34375 239.73046875 C370.59566945 243.53887883 369.71618934 244.51158571 366.74438477 246.84326172 C362.18280278 249.87364975 357.20027995 252.15819498 352.28125 254.54296875 C348.445 256.41984375 344.60875 258.29671875 340.65625 260.23046875 C340.65625 277.06046875 340.65625 293.89046875 340.65625 311.23046875 C349.40363278 315.70908277 349.40363278 315.70908277 358.1574707 320.17504883 C359.79075317 321.01652466 359.79075317 321.01652466 361.45703125 321.875 C362.57247314 322.44581299 363.68791504 323.01662598 364.8371582 323.60473633 C367.25902856 325.00139647 368.97454653 326.02325538 370.65625 328.23046875 C371.29598977 332.5487122 371.10288291 334.53890811 368.71875 338.23046875 C365.37878817 340.41166831 363.47712404 340.81519776 359.546875 340.16015625 C352.90714964 338.02467701 346.77881599 334.5283908 340.65625 331.23046875 C340.36492187 332.25785156 340.07359375 333.28523438 339.7734375 334.34375 C334.47805858 352.46956442 325.15619878 369.71513634 308.08203125 379.34765625 C296.19039935 385.59880849 285.21458478 387.3852584 271.98028564 387.36418152 C270.92836053 387.36644708 269.87643541 387.36871263 268.79263377 387.37104684 C265.28003884 387.37735935 261.76748277 387.37655924 258.25488281 387.37573242 C255.73133291 387.37872563 253.20778346 387.38212854 250.68423462 387.38591003 C244.54779054 387.39382149 238.41136061 387.39696398 232.27491191 387.39752241 C227.28378541 387.39799853 222.29266206 387.40005803 217.30153656 387.40322304 C203.13250577 387.41202435 188.96348254 387.41664325 174.794449 387.41589256 C174.03148005 387.41585261 173.2685111 387.41581265 172.48242188 387.41577148 C171.718515 387.4157306 170.95460813 387.41568972 170.16755256 387.4156476 C157.79275669 387.41524132 145.41799128 387.42480782 133.04320422 387.43890985 C120.31895121 387.45329503 107.59471303 387.46017885 94.87045169 387.45931607 C87.73396693 387.45898484 80.59751409 387.46169973 73.46103668 387.47249413 C66.74692324 387.48258505 60.03288822 387.48224193 53.31876755 387.47497749 C50.85981269 387.47393388 48.4008536 387.47628123 45.94190598 387.48233795 C42.57457524 387.49009247 39.20747495 387.48539014 35.84014893 387.47770691 C34.39496852 387.48542225 34.39496852 387.48542225 32.92059255 387.49329346 C13.99122679 387.39843169 -0.79214748 381.68551981 -14.73046875 369.0703125 C-25.01384532 358.2616554 -29.77272606 345.41155419 -33.34375 331.23046875 C-33.88789551 331.50310547 -34.43204102 331.77574219 -34.99267578 332.05664062 C-37.47876897 333.29360811 -39.97348893 334.51210814 -42.46875 335.73046875 C-43.75265625 336.37435547 -43.75265625 336.37435547 -45.0625 337.03125 C-53.33434801 341.0399148 -53.33434801 341.0399148 -58.34375 340.23046875 C-61.67253632 337.77006147 -63.13676948 336.33436488 -63.90625 332.23046875 C-63.20306384 328.48014259 -61.93450506 327.01571927 -59.34375 324.23046875 C-56.50292969 322.46948242 -56.50292969 322.46948242 -53.265625 320.8984375 C-52.21987305 320.3830542 -51.17412109 319.8676709 -50.09667969 319.33666992 C-48.11522949 318.38691284 -48.11522949 318.38691284 -46.09375 317.41796875 C-41.88625 315.37609375 -37.67875 313.33421875 -33.34375 311.23046875 C-33.34375 294.40046875 -33.34375 277.57046875 -33.34375 260.23046875 C-41.7136886 256.16383682 -41.7136886 256.16383682 -50.09667969 252.12426758 C-51.66530762 251.35119263 -51.66530762 251.35119263 -53.265625 250.5625 C-54.33393555 250.04405518 -55.40224609 249.52561035 -56.50292969 248.99145508 C-59.59968767 247.07181643 -61.32820254 245.24933077 -63.34375 242.23046875 C-63.90625 239.23046875 -63.90625 239.23046875 -63.34375 236.23046875 C-61.07116576 233.15579596 -59.64285745 231.45901543 -55.8125 230.78515625 C-50.63762995 231.44949768 -46.54532554 233.81487253 -41.96875 236.23046875 C-41.04191406 236.70742188 -40.11507812 237.184375 -39.16015625 237.67578125 C-36.88219777 238.84998665 -34.61062013 240.03503654 -32.34375 241.23046875 C-32.34743717 240.07309959 -32.35112434 238.91573044 -32.35492325 237.72328949 C-32.44159159 210.23749068 -32.50753053 182.75170558 -32.54801132 155.2657983 C-32.55301403 151.88130019 -32.55819133 148.49680237 -32.56347656 145.11230469 C-32.5645258 144.43852423 -32.56557505 143.76474378 -32.56665608 143.07054573 C-32.58405194 132.16687525 -32.61558508 121.26328929 -32.65236118 110.35966891 C-32.68979345 99.16799894 -32.71169136 87.97635786 -32.72010398 76.78462458 C-32.72531922 70.49986131 -32.73757905 64.21528964 -32.76667023 57.93058777 C-32.79383382 52.01433933 -32.80219294 46.0983613 -32.79618073 40.18205643 C-32.79728052 38.01167455 -32.80522856 35.84128357 -32.8205719 33.67095566 C-32.84051417 30.70441916 -32.83567332 27.73889959 -32.82476807 24.77233887 C-32.83641943 23.91628728 -32.8480708 23.0602357 -32.86007524 22.17824316 C-32.79399204 15.51386206 -31.10765381 10.02676206 -26.34375 5.20703125 C-25.68375 4.76101562 -25.02375 4.315 -24.34375 3.85546875 C-23.68375 3.39398438 -23.02375 2.9325 -22.34375 2.45703125 C-21.68375 2.05226563 -21.02375 1.6475 -20.34375 1.23046875 C-19.74046875 0.85535156 -19.1371875 0.48023437 -18.515625 0.09375 C-13.0194918 -2.0908641 -5.57161363 -1.82934647 0 0 Z " fill="#FEAF2E" transform="translate(102.34375,82.76953125)"/>
<path d="M0 0 C1.01707031 0.68835938 1.01707031 0.68835938 2.0546875 1.390625 C17.90638904 11.84133128 33.43266791 14.28174946 52.29736328 11.68359375 C59.90561307 10.09363742 68.16337141 6.52659799 73.93359375 1.22265625 C76 0 76 0 78.5 0.6328125 C80.83414944 1.90930048 82.87848318 3.27557521 85 4.875 C97.69319229 13.30956426 113.71443803 13.92632022 128.48974609 11.60961914 C137.89486311 9.63815055 146.46870771 5.99080069 154 0 C151.79463265 20.83847104 140.00559165 39.98681173 124.125 53.25 C105.28658977 67.55911405 82.97817607 69.57971236 59.90869141 66.60083008 C42.53140024 63.62542723 26.55252486 53.69138965 16.10546875 39.41015625 C14.29298056 36.65785937 12.62185179 33.86852823 11 31 C10.47535156 30.07445312 9.95070312 29.14890625 9.41015625 28.1953125 C5.09917641 20.09988471 0 9.3584015 0 0 Z " fill="#BB1E7F" transform="translate(179,363)"/>
<path d="M0 0 C4.42094636 1.60906516 7.35885457 3.03828185 10 7 C10.19997619 9.8427402 10.28331664 12.58775298 10.2746582 15.43115234 C10.27976913 16.29162674 10.28488007 17.15210114 10.29014587 18.03865051 C10.30406443 20.88781662 10.30308323 23.7367414 10.30078125 26.5859375 C10.30466729 28.56507457 10.30900177 30.5442108 10.31376648 32.52334595 C10.32123382 36.67444561 10.32093395 40.82546024 10.31567383 44.9765625 C10.30988234 50.2952779 10.3268 55.61364471 10.3500185 60.93230247 C10.36475435 65.02096593 10.36562767 69.10954544 10.36250877 73.19823074 C10.36302219 75.1590303 10.36826366 77.11983453 10.37832069 79.08060837 C10.3906631 81.82398829 10.38390631 84.56668946 10.37231445 87.31005859 C10.37995819 88.11958481 10.38760193 88.92911102 10.39547729 89.76316833 C10.35258792 94.35762705 9.89760525 97.37524957 7 101 C2.11348457 104.47694367 -0.85032287 105.7410816 -7 105 C-9.60412504 103.51534011 -11.69329146 101.60482671 -13.875 99.5625 C-14.48359863 99.01698486 -15.09219727 98.47146973 -15.71923828 97.90942383 C-19.94642611 94.08591844 -24.00971217 90.10460138 -27.984375 86.01953125 C-30.5718346 83.42705719 -33.32280285 81.06305052 -36.1015625 78.6796875 C-38.58762638 76.48008365 -40.88869934 74.12386163 -43.2109375 71.75390625 C-45.11315582 69.88906777 -47.09762375 68.16494605 -49.125 66.4375 C-50.42162336 65.29727868 -51.71364789 64.15179645 -53 63 C-53.53367187 62.53078125 -54.06734375 62.0615625 -54.6171875 61.578125 C-57.62044591 58.55789903 -58.37403607 56.04722968 -58.5625 51.9375 C-58.24579565 46.49668175 -56.50936622 44.24488289 -52.48046875 40.640625 C-51.19237194 39.5068753 -49.89425359 38.38447374 -48.58984375 37.26953125 C-45.2410959 34.33495734 -41.99759405 31.29564145 -38.75 28.25 C-32.20708392 22.12129534 -25.62815131 16.03651716 -19 10 C-18.04480469 9.12730469 -17.08960938 8.25460938 -16.10546875 7.35546875 C-14.75388672 6.12763672 -14.75388672 6.12763672 -13.375 4.875 C-12.57835937 4.15054688 -11.78171875 3.42609375 -10.9609375 2.6796875 C-7.32646564 -0.43350553 -4.74729636 -0.38284648 0 0 Z " fill="#FF822D" transform="translate(420,113)"/>
<path d="M0 0 C4.98390737 2.89094627 8.97615521 6.59521445 13.125 10.5625 C14.45790694 11.82206596 15.79124533 13.08117549 17.125 14.33984375 C17.78113281 14.96101074 18.43726563 15.58217773 19.11328125 16.22216797 C21.76019621 18.71632361 24.43988593 21.17197691 27.125 23.625 C28.07890625 24.49898437 29.0328125 25.37296875 30.015625 26.2734375 C32.14552597 28.22228263 34.28272258 30.1628806 36.421875 32.1015625 C39.64803947 35.03344999 42.83458823 38.00254886 46 41 C47.06541016 42.00546875 47.06541016 42.00546875 48.15234375 43.03125 C50.88899525 45.8644892 52.36768786 48.15870721 52.625 52.0625 C51.41079522 59.71199012 46.18588793 63.99780644 40.6875 69 C39.2473775 70.32940722 37.80727377 71.65883478 36.3671875 72.98828125 C35.63854492 73.65682129 34.90990234 74.32536133 34.15917969 75.01416016 C31.48368492 77.47486509 28.82900518 79.95719556 26.17626953 82.44238281 C24.32900776 84.17204317 22.47758613 85.8971389 20.625 87.62109375 C18.17985929 89.89694535 15.7436224 92.18184065 13.3125 94.47265625 C12.14595097 95.56522978 10.97928931 96.65768307 9.8125 97.75 C9.28374268 98.25168701 8.75498535 98.75337402 8.21020508 99.27026367 C2.23527116 104.84149895 2.23527116 104.84149895 -2.1484375 105.15234375 C-8.00917672 104.58683383 -10.87474747 103.22838384 -15 99 C-16.62609481 95.74781038 -16.17444476 92.16567631 -16.19287109 88.59057617 C-16.20104858 87.72049423 -16.20922607 86.85041229 -16.21765137 85.95396423 C-16.24251787 83.06697279 -16.25902417 80.18003054 -16.2734375 77.29296875 C-16.27876118 76.30811304 -16.28408485 75.32325733 -16.28956985 74.30855751 C-16.3163063 69.09625654 -16.33568003 63.88397957 -16.35009766 58.67163086 C-16.36675105 53.28436019 -16.41153332 47.89770061 -16.4624691 42.51066113 C-16.49610277 38.37139675 -16.50767081 34.23227815 -16.51332474 30.09288979 C-16.52004744 28.10692993 -16.53529586 26.12098 -16.55921555 24.13515282 C-16.59078824 21.35546236 -16.5909159 18.57742966 -16.58349609 15.79760742 C-16.59990143 14.97715942 -16.61630676 14.15671143 -16.63320923 13.31140137 C-16.58630105 9.0186495 -16.39470359 7.48419712 -13.58071899 4.03218079 C-8.92079386 0.36273427 -6.07146615 -0.6280827 0 0 Z " fill="#FF822D" transform="translate(99,113)"/>
<path d="M0 0 C8.28086365 5.082737 14.00865306 12.64148125 16.375 22.0625 C17.0854536 26.71745116 16.96932382 29.89762531 14.8125 34.125 C12.375 36.0625 12.375 36.0625 8.875 36.625 C4.78721156 35.968034 3.93497069 35.20913064 1.375 32.0625 C0.46875 29.44140625 0.46875 29.44140625 -0.125 26.625 C-1.21068372 22.22357952 -2.2346932 19.24733366 -5.625 16.0625 C-10.1148169 13.36091852 -14.52234031 13.40955303 -19.625 14.0625 C-24.09943165 16.25903917 -26.60249938 18.51187361 -28.625 23.0625 C-28.95921803 24.57870862 -29.27003585 26.1001869 -29.5625 27.625 C-30.16631227 30.54667226 -30.64098934 32.08678011 -32.3125 34.625 C-35.65123231 36.70042819 -37.7746999 36.68129823 -41.625 36.0625 C-44.98268802 33.30747393 -45.55935436 31.62517691 -46.0625 27.3125 C-45.57686267 18.97833672 -42.30718193 12.11415116 -36.625 6.0625 C-26.74269524 -2.67655774 -12.43767789 -5.62703056 0 0 Z " fill="#442C31" transform="translate(332.625,277.9375)"/>
<path d="M0 0 C7.33058222 4.45658884 13.52064472 11.65172888 15.921875 19.953125 C17.00472941 24.99399898 17.1790149 29.48663079 14.8125 34.125 C12.375 36.0625 12.375 36.0625 8.875 36.625 C4.78721156 35.968034 3.93497069 35.20913064 1.375 32.0625 C0.46875 29.44140625 0.46875 29.44140625 -0.125 26.625 C-1.21068372 22.22357952 -2.2346932 19.24733366 -5.625 16.0625 C-10.1148169 13.36091852 -14.52234031 13.40955303 -19.625 14.0625 C-24.09943165 16.25903917 -26.60249938 18.51187361 -28.625 23.0625 C-28.95921803 24.57870862 -29.27003585 26.1001869 -29.5625 27.625 C-30.16631227 30.54667226 -30.64098934 32.08678011 -32.3125 34.625 C-35.65123231 36.70042819 -37.7746999 36.68129823 -41.625 36.0625 C-44.98268802 33.30747393 -45.55935436 31.62517691 -46.0625 27.3125 C-45.57686267 18.97833672 -42.30718193 12.11415116 -36.625 6.0625 C-26.74269524 -2.67655774 -12.43767789 -5.62703056 0 0 Z " fill="#442C31" transform="translate(208.625,277.9375)"/>
<path d="M0 0 C2.5 2.1875 2.5 2.1875 4 5 C4.0625 8.0625 4.0625 8.0625 3 11 C-1.1095639 14.8845604 -5.9264089 17.14094622 -10.95703125 19.58984375 C-11.81882492 20.01624649 -12.68061859 20.44264923 -13.56852722 20.88197327 C-16.31370519 22.23960915 -19.06270627 23.58924048 -21.8125 24.9375 C-24.55124304 26.28284322 -27.2890087 27.63004306 -30.02433777 28.98231506 C-31.72190726 29.82133753 -33.42143099 30.65642223 -35.12324524 31.48680115 C-39.66559287 33.72948957 -43.9925033 36.14195744 -48.24549866 38.89642334 C-50.93807104 40.59004418 -53.74958464 41.95874606 -56.625 43.3125 C-57.68976562 43.82425781 -58.75453125 44.33601563 -59.8515625 44.86328125 C-63.18785705 46.06782432 -65.48467923 46.38016812 -69 46 C-72.32878632 43.53959272 -73.79301948 42.10389613 -74.5625 38 C-73.86357343 34.27239165 -72.55398721 32.77929905 -70 30 C-67.52416992 28.41357422 -67.52416992 28.41357422 -64.73046875 27.0546875 C-63.68793945 26.5405127 -62.64541016 26.02633789 -61.57128906 25.49658203 C-59.89631348 24.69389893 -59.89631348 24.69389893 -58.1875 23.875 C-57.0334668 23.31022949 -55.87943359 22.74545898 -54.69042969 22.16357422 C-51.13357736 20.42796652 -47.56864601 18.71120517 -44 17 C-42.39342529 16.2275293 -42.39342529 16.2275293 -40.75439453 15.43945312 C-36.80054794 13.54020916 -32.84624656 11.64249327 -28.87963867 9.77001953 C-24.77633768 7.83101363 -20.70204918 5.87385212 -16.703125 3.7265625 C-16.06665039 3.38866699 -15.43017578 3.05077148 -14.77441406 2.70263672 C-13.15384863 1.83259732 -11.54499238 0.9408376 -9.9375 0.046875 C-6.20669348 -1.28272094 -3.81423098 -0.93993549 0 0 Z " fill="#FF6723" transform="translate(113,377)"/>
<path d="M0 0 C3.18978767 1.21931227 6.17022364 2.78206073 9.1875 4.375 C10.50862793 5.05393311 10.50862793 5.05393311 11.85644531 5.74658203 C14.57851936 7.15040979 17.29056921 8.57194252 20 10 C20.79164551 10.41636719 21.58329102 10.83273437 22.39892578 11.26171875 C25.44843124 12.86733696 28.49751187 14.47346424 31.53808594 16.09594727 C36.11382659 18.52651319 40.72557963 20.85810204 45.38671875 23.12109375 C46.4737207 23.6517041 47.56072266 24.18231445 48.68066406 24.72900391 C50.80908397 25.76385634 52.942395 26.78872471 55.08105469 27.80224609 C64.38885536 32.33891195 64.38885536 32.33891195 67 37 C67 40.63075827 66.41176127 42.42048414 64.3125 45.375 C61.24324602 47.53177307 59.72065161 47.3486308 56 47 C53.47285832 45.98099415 51.18176338 44.9302056 48.78515625 43.66796875 C48.10068924 43.32016861 47.41622223 42.97236847 46.71101379 42.61402893 C44.48917766 41.48256719 42.27603999 40.3350936 40.0625 39.1875 C37.76294117 38.0114548 35.46123545 36.83969531 33.15924072 35.66842651 C31.62386954 34.88711397 30.08915937 34.1045011 28.55511475 33.32058716 C21.16321591 29.55019787 13.68421065 25.98076542 6.15649414 22.48901367 C-7.66725099 15.99912352 -7.66725099 15.99912352 -11 11 C-11.4375 8.125 -11.4375 8.125 -11 5 C-7.63150738 0.44262764 -5.56905997 -0.66649279 0 0 Z " fill="#FF6723" transform="translate(50,314)"/>
<path d="M0 0 C3.62652055 2.60163431 4.82303105 4.09906719 5.6875 8.5 C4.79786284 13.02906193 2.66252847 14.5322145 -1 17 C-4.57288831 19.02862089 -8.24185587 20.83185249 -11.9375 22.625 C-12.98929443 23.14280029 -14.04108887 23.66060059 -15.12475586 24.1940918 C-18.41126794 25.8070783 -21.70422064 27.40604304 -25 29 C-26.5473584 29.74902588 -26.5473584 29.74902588 -28.12597656 30.51318359 C-33.88573524 33.29493782 -39.65860522 36.04770287 -45.44091797 38.78222656 C-47.83391517 39.92096631 -50.21706526 41.07778505 -52.59765625 42.2421875 C-53.94006463 42.89070685 -55.28250953 43.53915061 -56.625 44.1875 C-58.31496094 45.01314453 -58.31496094 45.01314453 -60.0390625 45.85546875 C-62.99559739 46.9982982 -64.87222548 47.37533294 -68 47 C-70.5523967 45.34439133 -71.75580854 44.10338365 -72.421875 41.09375 C-72.68487415 37.17798488 -72.68487415 37.17798488 -72 35 C-67.93327315 31.24693686 -63.35201122 28.98905412 -58.4296875 26.5859375 C-57.59398224 26.17139313 -56.75827698 25.75684875 -55.89724731 25.32974243 C-53.22596139 24.00574882 -50.55076625 22.68991206 -47.875 21.375 C-44.39159627 19.65693529 -40.91003973 17.93517488 -37.4296875 16.2109375 C-36.5719574 15.78641296 -35.71422729 15.36188843 -34.83050537 14.92449951 C-26.35854253 10.7140642 -17.98926661 6.31458718 -9.6399231 1.86685181 C-6.14579325 0.01987936 -4.02274733 -0.47326439 0 0 Z " fill="#FF6723" transform="translate(468,314)"/>
<path d="M0 0 C3.11031787 1.34891017 6.04268099 2.97141283 9 4.625 C10.69250723 5.54443914 12.38653645 6.46108181 14.08203125 7.375 C14.91557129 7.82488281 15.74911133 8.27476562 16.60791016 8.73828125 C19.91685643 10.48360012 23.28406991 12.07398866 26.6875 13.625 C59.8166004 28.8166004 59.8166004 28.8166004 65 34 C65.56595542 38.28509104 65.42858845 40.33637917 63.0625 44 C59.26574023 46.47951659 57.7034968 46.13590963 53.38354492 45.53466797 C49.58138185 44.68178083 46.47909938 42.99876532 43.125 41.0625 C41.62923383 40.23638577 40.13312761 39.41088699 38.63671875 38.5859375 C37.48888916 37.94350098 37.48888916 37.94350098 36.31787109 37.28808594 C32.55478019 35.19686331 28.74737089 33.19184618 24.9375 31.1875 C24.17058838 30.78063965 23.40367676 30.3737793 22.61352539 29.95458984 C17.98118259 27.51155975 13.31273354 25.16260224 8.6015625 22.875 C7.51625244 22.34495361 6.43094238 21.81490723 5.31274414 21.26879883 C3.18687956 20.2345297 1.05600322 19.21048323 -1.08032227 18.19799805 C-10.3779331 13.66665478 -10.3779331 13.66665478 -13 9 C-13.08027379 5.06658433 -12.4616714 3.52956425 -9.875 0.5625 C-5.99317542 -1.54718727 -4.29382672 -0.98058216 0 0 Z " fill="#FF6722" transform="translate(408,377)"/>
<path d="M0 0 C1.24101974 -0.01354271 1.24101974 -0.01354271 2.5071106 -0.02735901 C4.25714499 -0.0418624 6.00723362 -0.05074847 7.75732422 -0.05444336 C10.4289942 -0.06633363 13.09834923 -0.11550905 15.76953125 -0.16601562 C17.47134291 -0.17548093 19.17316874 -0.18271545 20.875 -0.1875 C22.06897903 -0.21679848 22.06897903 -0.21679848 23.28707886 -0.24668884 C27.53366292 -0.21230943 29.10976164 0.00851408 32.56689453 2.73022461 C34.5703125 5.37109375 34.5703125 5.37109375 35.3203125 8.18359375 C34.15585717 13.13252889 31.09169831 15.82554749 27.5703125 19.37109375 C26.63384033 20.33306642 25.69765823 21.29532154 24.76171875 22.2578125 C15.01646869 32.18739283 15.01646869 32.18739283 10.6796875 32.73828125 C6.81384108 32.2817617 5.59149481 31.18358263 2.8203125 28.49609375 C1.97082031 27.67625 1.12132812 26.85640625 0.24609375 26.01171875 C-0.63691406 25.1403125 -1.51992187 24.26890625 -2.4296875 23.37109375 C-3.83154297 22.09492188 -3.83154297 22.09492188 -5.26171875 20.79296875 C-6.16277344 19.9525 -7.06382812 19.11203125 -7.9921875 18.24609375 C-8.81847656 17.48039062 -9.64476562 16.7146875 -10.49609375 15.92578125 C-12.92358299 12.71855304 -13.22042865 10.34701193 -13.4296875 6.37109375 C-11.28955784 -0.22763938 -6.02486498 0.0403852 0 0 Z " fill="#F70D8A" transform="translate(245.4296875,313.62890625)"/>
</svg>
